<svg width="250" height="252" viewBox="0 0 250 252" fill="none" xmlns="http://www.w3.org/2000/svg">
<rect width="250" height="252" fill="#F5F5F5"/>
<g id="QR code component" clip-path="url(#clip0_0_1)">
<rect width="1440" height="1116" transform="translate(-595 -239)" fill="white"/>
<rect id="Rectangle 1" x="-595" y="-239" width="1440" height="1116" fill="#D5E1EF"/>
<g id="QR code component_2">
<rect id="Rectangle 2" x="-173" y="-99" width="596" height="815" rx="20" fill="white"/>
<g id="qr-code">
<rect id="Rectangle 3" x="-150" y="-75.915" width="550" height="403.485" rx="20" fill="#2B7DFA"/>
<g id="bi:qr-code" clip-path="url(#clip1_0_1)">
<g id="Group">
<path id="Vector" d="M31.25 31.7312H62.5V63.0967H31.25V31.7312Z" fill="white"/>
<path id="Vector_2" d="M93.75 0.365761V94.4621H0V0.365761H93.75ZM78.125 16.0485H15.625V78.7794H78.125V16.0485ZM62.5 188.559H31.25V219.924H62.5V188.559Z" fill="white"/>
<path id="Vector_3" d="M93.75 157.193V251.289H0V157.193H93.75ZM15.625 172.876V235.607H78.125V172.876H15.625ZM187.5 31.7312H218.75V63.0967H187.5V31.7312Z" fill="white"/>
<path id="Vector_4" d="M156.25 0.365761V94.4621H250V0.365761H156.25ZM234.375 16.0485V78.7794H171.875V16.0485H234.375ZM125 16.0485V0.365761H140.625V31.7312H125V63.0967H109.375V16.0485H125ZM125 94.4621V63.0967H140.625V94.4621H125ZM93.75 125.828V110.145H109.375V94.4621H125V125.828H140.625V110.145H218.75V125.828H156.25V141.51H109.375V125.828H93.75ZM93.75 125.828V141.51H31.25V125.828H15.625V141.51H0V110.145H46.875V125.828H93.75ZM250 141.51H234.375V110.145H250V141.51ZM234.375 141.51H218.75V172.876H250V157.193H234.375V141.51ZM171.875 141.51H203.125V157.193H187.5V172.876H171.875V141.51ZM203.125 188.559V172.876H187.5V188.559H171.875V204.241H140.625V219.924H187.5V188.559H203.125ZM203.125 188.559H250V204.241H218.75V219.924H203.125V188.559ZM140.625 172.876V188.559H156.25V157.193H109.375V172.876H140.625Z" fill="white"/>
<path id="Vector_5" d="M109.375 188.559H125V235.607H187.5V251.289H109.375V188.559ZM250 219.924V251.289H203.125V235.607H234.375V219.924H250Z" fill="white"/>
</g>
</g>
</g>
</g>
</g>
<defs>
<clipPath id="clip0_0_1">
<rect width="1440" height="1116" fill="white" transform="translate(-595 -239)"/>
</clipPath>
<clipPath id="clip1_0_1">
<rect width="250" height="250.924" fill="white" transform="translate(0 0.365761)"/>
</clipPath>
</defs>
</svg>
